<mxfile host="app.diagrams.net" agent="Mozilla/5.0 (X11; Linux x86_64; rv:130.0) Gecko/20100101 Firefox/130.0" version="24.7.16">
  <diagram name="第 1 页" id="6EoqMSFkadLcJXP7Qp1h">
    <mxGraphModel dx="1390" dy="831" grid="1" gridSize="10" guides="1" tooltips="1" connect="1" arrows="1" fold="1" page="1" pageScale="1" pageWidth="827" pageHeight="1169" math="0" shadow="0">
      <root>
        <mxCell id="0" />
        <mxCell id="1" parent="0" />
        <mxCell id="C024yS92l6YmT_0G1x69-1" value="房间" style="rounded=0;whiteSpace=wrap;html=1;" vertex="1" parent="1">
          <mxGeometry x="500" y="340" width="120" height="60" as="geometry" />
        </mxCell>
        <mxCell id="C024yS92l6YmT_0G1x69-38" style="edgeStyle=orthogonalEdgeStyle;rounded=0;orthogonalLoop=1;jettySize=auto;html=1;entryX=0;entryY=0.5;entryDx=0;entryDy=0;endArrow=none;endFill=0;" edge="1" parent="1" source="C024yS92l6YmT_0G1x69-2" target="C024yS92l6YmT_0G1x69-37">
          <mxGeometry relative="1" as="geometry" />
        </mxCell>
        <mxCell id="C024yS92l6YmT_0G1x69-41" value="N" style="edgeLabel;html=1;align=center;verticalAlign=middle;resizable=0;points=[];" vertex="1" connectable="0" parent="C024yS92l6YmT_0G1x69-38">
          <mxGeometry x="-0.6" y="2" relative="1" as="geometry">
            <mxPoint x="-12" y="-8" as="offset" />
          </mxGeometry>
        </mxCell>
        <mxCell id="C024yS92l6YmT_0G1x69-2" value="租户" style="rounded=0;whiteSpace=wrap;html=1;" vertex="1" parent="1">
          <mxGeometry x="160" y="120" width="120" height="60" as="geometry" />
        </mxCell>
        <mxCell id="C024yS92l6YmT_0G1x69-3" value="维修请求" style="rounded=0;whiteSpace=wrap;html=1;" vertex="1" parent="1">
          <mxGeometry x="500" y="590" width="120" height="60" as="geometry" />
        </mxCell>
        <mxCell id="C024yS92l6YmT_0G1x69-4" value="租赁合同" style="rounded=0;whiteSpace=wrap;html=1;" vertex="1" parent="1">
          <mxGeometry x="160" y="340" width="120" height="60" as="geometry" />
        </mxCell>
        <mxCell id="C024yS92l6YmT_0G1x69-5" value="租房" style="rhombus;whiteSpace=wrap;html=1;" vertex="1" parent="1">
          <mxGeometry x="180" y="220" width="80" height="80" as="geometry" />
        </mxCell>
        <mxCell id="C024yS92l6YmT_0G1x69-14" style="rounded=0;orthogonalLoop=1;jettySize=auto;html=1;entryX=0.5;entryY=0;entryDx=0;entryDy=0;endArrow=none;endFill=0;exitX=0.5;exitY=1;exitDx=0;exitDy=0;" edge="1" parent="1" source="C024yS92l6YmT_0G1x69-2" target="C024yS92l6YmT_0G1x69-5">
          <mxGeometry relative="1" as="geometry">
            <mxPoint x="330" y="50" as="sourcePoint" />
            <mxPoint x="330" y="160" as="targetPoint" />
          </mxGeometry>
        </mxCell>
        <mxCell id="C024yS92l6YmT_0G1x69-32" value="1" style="edgeLabel;html=1;align=center;verticalAlign=middle;resizable=0;points=[];" vertex="1" connectable="0" parent="C024yS92l6YmT_0G1x69-14">
          <mxGeometry x="0.05" y="2" relative="1" as="geometry">
            <mxPoint x="-12" y="-11" as="offset" />
          </mxGeometry>
        </mxCell>
        <mxCell id="C024yS92l6YmT_0G1x69-15" style="rounded=0;orthogonalLoop=1;jettySize=auto;html=1;entryX=0.5;entryY=0;entryDx=0;entryDy=0;endArrow=none;endFill=0;exitX=0.5;exitY=1;exitDx=0;exitDy=0;" edge="1" parent="1" source="C024yS92l6YmT_0G1x69-5" target="C024yS92l6YmT_0G1x69-4">
          <mxGeometry relative="1" as="geometry">
            <mxPoint x="230" y="190" as="sourcePoint" />
            <mxPoint x="230" y="230" as="targetPoint" />
          </mxGeometry>
        </mxCell>
        <mxCell id="C024yS92l6YmT_0G1x69-33" value="N" style="edgeLabel;html=1;align=center;verticalAlign=middle;resizable=0;points=[];" vertex="1" connectable="0" parent="C024yS92l6YmT_0G1x69-15">
          <mxGeometry x="-0.05" relative="1" as="geometry">
            <mxPoint x="-10" y="11" as="offset" />
          </mxGeometry>
        </mxCell>
        <mxCell id="C024yS92l6YmT_0G1x69-20" value="报修" style="rhombus;whiteSpace=wrap;html=1;" vertex="1" parent="1">
          <mxGeometry x="520" y="450" width="80" height="80" as="geometry" />
        </mxCell>
        <mxCell id="C024yS92l6YmT_0G1x69-21" style="rounded=0;orthogonalLoop=1;jettySize=auto;html=1;entryX=0.5;entryY=0;entryDx=0;entryDy=0;endArrow=none;endFill=0;exitX=0.5;exitY=1;exitDx=0;exitDy=0;" edge="1" parent="1" source="C024yS92l6YmT_0G1x69-1" target="C024yS92l6YmT_0G1x69-20">
          <mxGeometry relative="1" as="geometry">
            <mxPoint x="750" y="390" as="sourcePoint" />
            <mxPoint x="750" y="500" as="targetPoint" />
          </mxGeometry>
        </mxCell>
        <mxCell id="C024yS92l6YmT_0G1x69-34" value="1" style="edgeLabel;html=1;align=center;verticalAlign=middle;resizable=0;points=[];" vertex="1" connectable="0" parent="C024yS92l6YmT_0G1x69-21">
          <mxGeometry x="-0.025" y="1" relative="1" as="geometry">
            <mxPoint x="-11" y="-14" as="offset" />
          </mxGeometry>
        </mxCell>
        <mxCell id="C024yS92l6YmT_0G1x69-22" style="rounded=0;orthogonalLoop=1;jettySize=auto;html=1;entryX=0.5;entryY=0;entryDx=0;entryDy=0;endArrow=none;endFill=0;exitX=0.5;exitY=1;exitDx=0;exitDy=0;" edge="1" parent="1" source="C024yS92l6YmT_0G1x69-20" target="C024yS92l6YmT_0G1x69-3">
          <mxGeometry relative="1" as="geometry">
            <mxPoint x="570" y="380" as="sourcePoint" />
            <mxPoint x="570" y="510" as="targetPoint" />
          </mxGeometry>
        </mxCell>
        <mxCell id="C024yS92l6YmT_0G1x69-35" value="N" style="edgeLabel;html=1;align=center;verticalAlign=middle;resizable=0;points=[];" vertex="1" connectable="0" parent="C024yS92l6YmT_0G1x69-22">
          <mxGeometry x="-0.05" y="3" relative="1" as="geometry">
            <mxPoint x="-13" y="21" as="offset" />
          </mxGeometry>
        </mxCell>
        <mxCell id="C024yS92l6YmT_0G1x69-24" value="对应" style="rhombus;whiteSpace=wrap;html=1;" vertex="1" parent="1">
          <mxGeometry x="350" y="330" width="80" height="80" as="geometry" />
        </mxCell>
        <mxCell id="C024yS92l6YmT_0G1x69-25" style="rounded=0;orthogonalLoop=1;jettySize=auto;html=1;entryX=0;entryY=0.5;entryDx=0;entryDy=0;endArrow=none;endFill=0;exitX=1;exitY=0.5;exitDx=0;exitDy=0;" edge="1" parent="1" source="C024yS92l6YmT_0G1x69-24" target="C024yS92l6YmT_0G1x69-1">
          <mxGeometry relative="1" as="geometry">
            <mxPoint x="570" y="410" as="sourcePoint" />
            <mxPoint x="570" y="490" as="targetPoint" />
          </mxGeometry>
        </mxCell>
        <mxCell id="C024yS92l6YmT_0G1x69-30" value="1" style="edgeLabel;html=1;align=center;verticalAlign=middle;resizable=0;points=[];" vertex="1" connectable="0" parent="C024yS92l6YmT_0G1x69-25">
          <mxGeometry x="-0.0571" relative="1" as="geometry">
            <mxPoint x="27" y="-10" as="offset" />
          </mxGeometry>
        </mxCell>
        <mxCell id="C024yS92l6YmT_0G1x69-26" style="rounded=0;orthogonalLoop=1;jettySize=auto;html=1;entryX=0;entryY=0.5;entryDx=0;entryDy=0;endArrow=none;endFill=0;exitX=1;exitY=0.5;exitDx=0;exitDy=0;" edge="1" parent="1" source="C024yS92l6YmT_0G1x69-4" target="C024yS92l6YmT_0G1x69-24">
          <mxGeometry relative="1" as="geometry">
            <mxPoint x="440" y="380" as="sourcePoint" />
            <mxPoint x="510" y="380" as="targetPoint" />
          </mxGeometry>
        </mxCell>
        <mxCell id="C024yS92l6YmT_0G1x69-31" value="N" style="edgeLabel;html=1;align=center;verticalAlign=middle;resizable=0;points=[];" vertex="1" connectable="0" parent="C024yS92l6YmT_0G1x69-26">
          <mxGeometry x="-0.0571" relative="1" as="geometry">
            <mxPoint x="-23" y="-10" as="offset" />
          </mxGeometry>
        </mxCell>
        <mxCell id="C024yS92l6YmT_0G1x69-39" style="edgeStyle=orthogonalEdgeStyle;rounded=0;orthogonalLoop=1;jettySize=auto;html=1;entryX=0.5;entryY=0;entryDx=0;entryDy=0;endArrow=none;endFill=0;" edge="1" parent="1" source="C024yS92l6YmT_0G1x69-37" target="C024yS92l6YmT_0G1x69-1">
          <mxGeometry relative="1" as="geometry" />
        </mxCell>
        <mxCell id="C024yS92l6YmT_0G1x69-40" value="&lt;div&gt;1&lt;/div&gt;" style="edgeLabel;html=1;align=center;verticalAlign=middle;resizable=0;points=[];" vertex="1" connectable="0" parent="C024yS92l6YmT_0G1x69-39">
          <mxGeometry x="-0.0143" y="1" relative="1" as="geometry">
            <mxPoint x="-11" y="132" as="offset" />
          </mxGeometry>
        </mxCell>
        <mxCell id="C024yS92l6YmT_0G1x69-37" value="居住" style="rhombus;whiteSpace=wrap;html=1;" vertex="1" parent="1">
          <mxGeometry x="390" y="110" width="80" height="80" as="geometry" />
        </mxCell>
      </root>
    </mxGraphModel>
  </diagram>
</mxfile>
